<svg width="24" height="24" viewBox="0 0 24 24" fill="none" xmlns="http://www.w3.org/2000/svg">
<path d="M18 11.4538C18 10.801 17.662 10.1925 17.0814 9.6801C17.3038 8.9857 17.428 8.21327 17.428 7.39922C17.428 4.55657 15.9201 2.22627 13.999 2.0156C13.9037 2.0052 13.8113 2 13.7159 2H10.856C9.37699 2 8.09726 3.26138 7.50217 5.08453H8.69811C9.1921 3.81015 10.0559 3.02731 10.856 3.02731H11.5349C11.5002 3.06892 11.4569 3.11313 11.4223 3.15475C10.9745 3.6697 10.6105 4.3303 10.3621 5.08453H7.5195C7.39817 5.39922 7.32884 5.74513 7.25951 6.11444H10.1078C10.0414 6.52796 10.0038 6.95709 10.0038 7.39922C10.0038 7.70611 10.0212 8.0026 10.053 8.29389C10.0674 8.42653 10.0876 8.55657 10.1107 8.68661H8.40636C8.33125 8.28609 8.28791 7.85436 8.28791 7.39922C8.28791 6.94669 8.33125 6.51496 8.40636 6.11444H7.25085C7.18152 6.52536 7.14396 6.95709 7.14396 7.39922C7.14396 8.07543 7.23062 8.72302 7.38661 9.316C6.61242 9.83615 6.11555 10.4863 6.01733 11.199C6.00578 11.2848 6 11.3706 6 11.4538V14.0286C6 14.3875 6.10111 14.7308 6.28888 15.0559C6.14733 15.303 6.05489 15.5631 6.01733 15.831C6.00578 15.9142 6 16 6 16.0832V18.658C6 18.9155 6.05199 19.1678 6.1531 19.4096C6.63263 20.5774 8.20992 21.5085 10.2465 21.8544C10.8012 21.948 11.3905 22 12 22C15.3106 22 18 20.5046 18 18.658V16.0832C18 15.7243 17.8989 15.3784 17.7111 15.0559C17.8989 14.7308 18 14.3875 18 14.0286V11.4538ZM12.2831 3.82835C12.4247 3.6593 12.5749 3.51626 12.7309 3.39922C12.8666 3.29519 13.0053 3.21457 13.1497 3.15475C13.3375 3.06892 13.5282 3.02731 13.7159 3.02731C14.9292 3.02731 16.2841 4.82185 16.2841 7.39922C16.2841 7.9844 16.2147 8.52536 16.0934 9.01431C16.0039 9.38102 15.8854 9.71912 15.7439 10.0234C15.4174 10.7256 14.9755 11.251 14.5046 11.5319C14.2446 11.6905 13.9759 11.7737 13.7159 11.7737C13.5282 11.7737 13.3375 11.7295 13.1497 11.6463C12.8435 11.5163 12.5489 11.29 12.2831 10.9701C11.9018 10.5228 11.5753 9.90637 11.376 9.15995C11.2865 8.84265 11.22 8.50455 11.1854 8.14304C11.1594 7.90377 11.1449 7.6567 11.1449 7.39922C11.1449 5.85436 11.6302 4.59298 12.2831 3.82835ZM10.3621 9.71392C10.6105 10.4707 10.9745 11.1313 11.4223 11.6463C11.4511 11.6853 11.4945 11.7295 11.5349 11.7737H10.856C10.0674 11.7737 9.22099 11.0169 8.72412 9.77894C8.71545 9.75813 8.70678 9.73732 8.69811 9.71392H10.3621ZM7.14396 13.4174C7.19019 13.4486 7.23929 13.485 7.28551 13.5189C7.40684 13.6047 7.53972 13.6879 7.67549 13.7685C8.04526 13.9818 8.46413 14.1691 8.92056 14.3225C9.08522 14.3797 9.25566 14.4291 9.42898 14.4733V15.9714C8.68946 15.7399 8.09726 15.4148 7.70439 15.0585C7.37218 14.7568 7.17862 14.4317 7.14973 14.117C7.14684 14.0858 7.14396 14.0572 7.14396 14.0286V13.4174ZM9.42898 20.6008C8.29658 20.2445 7.51372 19.6775 7.24796 19.0949C7.17863 18.9493 7.14396 18.8036 7.14396 18.658V18.0468C7.19019 18.078 7.23929 18.1144 7.28551 18.1482C7.57439 18.3537 7.9037 18.5384 8.26769 18.697C8.6259 18.8583 9.013 18.9935 9.42898 19.1027V20.6008ZM16.8561 18.658C16.8561 19.3784 15.9865 20.1561 14.5739 20.6008V19.1027C15.4117 18.8817 16.1454 18.554 16.7145 18.1482C16.7636 18.1196 16.8098 18.0858 16.8561 18.0468V18.658ZM16.7145 16.593C16.5729 16.8687 16.3187 17.1339 15.9663 17.3732C15.5965 17.6281 15.1257 17.8544 14.571 18.0286V19.1027L13.4299 19.3316V20.8635C12.9822 20.9337 12.5055 20.9701 12 20.9701C11.4945 20.9701 11.0178 20.9337 10.5729 20.8635V19.3316C11.0294 19.3914 11.506 19.4252 12 19.4252C12.494 19.4252 12.9706 19.3914 13.4299 19.3316V18.2887C12.9822 18.3589 12.5055 18.3979 12 18.3979C11.0698 18.3979 10.2292 18.2679 9.51854 18.0546C8.92345 17.8778 8.42079 17.6411 8.0337 17.3732C7.68127 17.1339 7.42706 16.8687 7.28551 16.593C7.19018 16.4239 7.14396 16.2549 7.14396 16.0832C7.14396 16.0546 7.14684 16.026 7.14973 15.9974C7.99037 16.6346 9.22678 17.1053 10.6625 17.2848C11.0929 17.342 11.5407 17.3706 12 17.3706C13.9933 17.3706 15.7612 16.827 16.8532 15.9948C16.8561 16.026 16.8561 16.0546 16.8561 16.0832C16.8561 16.2549 16.8098 16.4239 16.7145 16.593ZM10.5729 16.2341V14.7022C11.0294 14.7646 11.506 14.7984 12 14.7984C12.3698 14.7984 12.728 14.7802 13.0804 14.7438C13.196 14.7308 13.3144 14.7178 13.4299 14.7022V16.2341C12.9822 16.3043 12.5055 16.3407 12 16.3407C11.9162 16.3407 11.8353 16.3407 11.7545 16.3355C11.3385 16.3277 10.9456 16.2939 10.5729 16.2341ZM16.8561 14.0286C16.8561 14.0572 16.8561 14.0858 16.8532 14.117C16.8214 14.4317 16.6278 14.7568 16.2985 15.0585C15.9028 15.4148 15.3134 15.7399 14.5739 15.9714V14.4733C14.7472 14.4291 14.9148 14.3797 15.0794 14.3225C15.5388 14.1691 15.9576 13.9818 16.3245 13.7685C16.4603 13.6879 16.5932 13.6047 16.7145 13.5189C16.7636 13.4903 16.8098 13.4564 16.8561 13.4174V14.0286ZM16.7145 11.9662C16.5729 12.2419 16.3187 12.5046 15.9663 12.7438C15.7179 12.9155 15.4203 13.0767 15.0794 13.2146C14.6895 13.3758 14.2388 13.5111 13.7448 13.6047C13.2133 13.7087 12.6269 13.7685 12 13.7685C10.7896 13.7685 9.7323 13.5501 8.91766 13.2146C8.57968 13.0767 8.28213 12.9155 8.0337 12.7438C7.68127 12.5046 7.42706 12.2419 7.28551 11.9662C7.19018 11.7945 7.14396 11.6255 7.14396 11.4538C7.14396 11.0949 7.3635 10.7178 7.75926 10.3771C8.42368 11.8362 9.56476 12.801 10.856 12.801H13.7159C13.8517 12.801 13.9846 12.7906 14.1175 12.7698C15.1228 12.6112 16.0096 11.8674 16.6134 10.775C16.7723 11.0013 16.8561 11.2302 16.8561 11.4538C16.8561 11.6255 16.8098 11.7945 16.7145 11.9662Z" fill="white"/>
<path d="M15.663 8.34328L13.8748 9.95056L12.078 8.33287L12.8146 7.66967L13.3491 8.15081V4.98047H14.3919V8.15862L14.9235 7.68007L15.663 8.34328Z" fill="white"/>
</svg>
