<svg width="18" height="18" viewBox="0 0 18 18" fill="none" xmlns="http://www.w3.org/2000/svg">
<path d="M11.357 14.613L11.9344 15.1913C11.2434 15.2774 10.5351 15.24 9.85369 15.079C8.96636 14.8694 8.13485 14.4539 7.45154 13.8774L6.85486 14.5456C7.64788 15.2138 8.61027 15.6948 9.63812 15.9381C10.0173 16.0279 10.4023 16.0841 10.7891 16.1084C11.1703 16.1308 11.5514 16.1215 11.9306 16.0822L11.3878 16.6474L12.0538 17.2501L13.6263 15.6105L12.0076 13.9954L11.357 14.613Z" fill="white"/>
<path d="M16.4731 8.39571C16.3787 7.39814 15.9726 6.48667 15.349 5.75675C15.2508 5.64258 15.1507 5.53403 15.0429 5.42922C14.9351 5.32441 14.8235 5.22522 14.7061 5.13164C13.9554 4.52524 13.0199 4.13033 11.9921 4.03862V4.92763C12.7678 5.01185 13.478 5.31131 14.0593 5.76237L13.3645 6.43801C12.9699 6.15353 12.5022 5.95888 11.994 5.88589V4.92763H11.0836V5.88589C10.9412 5.90648 10.8045 5.93643 10.6698 5.97573C10.6678 5.97199 10.6659 5.96825 10.664 5.9645C10.485 5.68376 10.2752 5.42173 10.0423 5.18404C10.3695 5.0549 10.7198 4.96881 11.0855 4.92763V4.03862C10.4388 4.09664 9.8267 4.27445 9.27814 4.54958C9.27429 4.54771 9.27235 4.54396 9.2685 4.54208C8.46971 4.00681 7.50154 3.69238 6.45829 3.69238C3.7193 3.69238 1.5 5.85033 1.5 8.51174C1.5 11.175 3.7193 13.3311 6.45829 13.3311C7.28019 13.3311 8.05397 13.1365 8.73535 12.7921C9.0337 12.6424 9.31664 12.4627 9.57456 12.2568C9.84019 12.0491 10.0846 11.8114 10.304 11.5512C10.4985 11.3191 10.6717 11.0665 10.8218 10.8007C11.1991 10.1194 11.4166 9.33899 11.4166 8.50987C11.4166 7.9016 11.2992 7.31767 11.0875 6.78239C11.2337 6.75057 11.3858 6.73373 11.5417 6.73373C12.1365 6.73373 12.6754 6.96954 13.0681 7.34948H13.07C13.1778 7.45429 13.274 7.57033 13.3568 7.69573C13.5743 8.02326 13.7033 8.41441 13.7033 8.83365C13.7033 9.41385 13.4607 9.93976 13.07 10.3178C12.6773 10.6978 12.1403 10.9336 11.5436 10.9336C11.2896 10.9336 11.047 10.8905 10.8218 10.8119C10.6717 11.0777 10.5004 11.3304 10.304 11.5624C10.5504 11.6691 10.8141 11.7459 11.0894 11.7852V12.7415C10.5447 12.6817 10.0327 12.517 9.57456 12.268C9.31664 12.4739 9.0337 12.6517 8.73535 12.8033C9.41673 13.26 10.2213 13.5557 11.0894 13.6324C11.2395 13.6455 11.3916 13.653 11.5436 13.653C11.6957 13.653 11.8497 13.6474 11.9979 13.6324C13.0238 13.5407 13.9612 13.1458 14.7099 12.5394C14.8273 12.444 14.939 12.3466 15.0468 12.2418C15.1546 12.137 15.2566 12.0285 15.3528 11.9143C15.9784 11.1863 16.3845 10.2748 16.4788 9.27536C16.4923 9.12937 16.5 8.98151 16.5 8.83365C16.5 8.6858 16.4865 8.54169 16.4731 8.39571ZM10.0403 10.3366C9.5938 11.1601 8.85854 11.8132 7.96543 12.1632C7.4977 12.3485 6.98761 12.4496 6.45251 12.4496C4.21974 12.4496 2.40467 10.6847 2.40467 8.51362C2.40467 6.34444 4.21974 4.57764 6.45251 4.57764C7.16662 4.57764 7.83839 4.7592 8.42161 5.0755C8.70263 5.22709 8.96055 5.41051 9.19346 5.62012C9.43406 5.83536 9.64769 6.07867 9.82863 6.34443C9.99608 6.59148 10.1385 6.85912 10.2463 7.14173C10.4099 7.56846 10.5004 8.03075 10.5004 8.51362C10.5004 9.17055 10.3348 9.79192 10.0403 10.3366ZM11.9921 12.749V11.7926C12.5003 11.7197 12.968 11.525 13.3626 11.2405L14.0574 11.9162C13.4761 12.3654 12.7659 12.6648 11.9921 12.749ZM14.6984 11.2892L14.0035 10.6135C14.2961 10.2299 14.4963 9.77507 14.5713 9.28097H15.5568C15.4702 10.0352 15.1642 10.7258 14.6984 11.2892ZM14.5733 8.39571C14.4982 7.9016 14.298 7.44867 14.0055 7.06499L14.7003 6.38747C15.1642 6.95083 15.4702 7.64145 15.5588 8.39571H14.5733Z" fill="white"/>
<path d="M6.97798 8.11497C6.90484 8.08129 6.82783 8.05134 6.74699 8.01952C6.19842 7.81926 6.15994 7.72194 6.15994 7.58906C6.15994 7.41126 6.32931 7.29334 6.58146 7.29334C6.71427 7.29334 6.84709 7.31393 6.97606 7.35323C6.99723 7.35885 7.02032 7.36633 7.04149 7.37382C7.16083 7.42061 7.29365 7.41874 7.41106 7.36446C7.52848 7.31206 7.61893 7.21286 7.66513 7.08933C7.74982 6.84977 7.62086 6.58962 7.37641 6.49979C7.27632 6.46423 7.14159 6.42305 6.97606 6.39685V6.29765C6.97606 6.05434 6.77203 5.85596 6.52181 5.85596C6.26966 5.85596 6.06753 6.05434 6.06753 6.29765V6.43241C5.45737 6.60086 5.06472 7.06126 5.06472 7.66391C5.06472 8.03075 5.24179 8.52485 6.06753 8.85612C6.11373 8.87484 6.16378 8.89356 6.21575 8.91228C6.74122 9.10318 6.78358 9.2398 6.78358 9.39701C6.78358 9.70396 6.41785 9.73765 6.26001 9.73765C6.19842 9.73765 6.1349 9.73203 6.06753 9.72267C5.94242 9.70395 5.80771 9.66652 5.68067 9.61599C5.55748 9.56545 5.41888 9.56733 5.29954 9.62161C5.17827 9.67588 5.08589 9.77882 5.03777 9.91545C4.95693 10.1513 5.08396 10.4077 5.32263 10.4994C5.54784 10.5855 5.80191 10.6379 6.06946 10.6529V10.7839C6.06946 11.0291 6.27156 11.2256 6.52371 11.2256C6.77393 11.2256 6.97798 11.0291 6.97798 10.7839V10.548C7.54772 10.3553 7.89034 9.91919 7.89034 9.33525C7.89034 8.79061 7.59777 8.39946 6.97798 8.11497Z" fill="white"/>
<path d="M9.30894 3.05393L8.5775 2.67588C9.20884 2.38953 9.89407 2.21546 10.5947 2.1668C11.5071 2.10317 12.4271 2.25289 13.2586 2.59914L13.6166 1.78687C12.6523 1.38448 11.584 1.21042 10.5293 1.28529C9.75934 1.33956 9.00097 1.52484 8.30034 1.82804L8.64101 1.12807L7.81914 0.75L6.83557 2.77694L8.88354 3.83626L9.30894 3.05393Z" fill="white"/>
</svg>
