<svg width="22" height="20" viewBox="0 0 22 20" fill="none" xmlns="http://www.w3.org/2000/svg">
<path d="M16.24 13.728H5.392C4.62464 13.728 4 13.1034 4 12.336V5.392C4 4.62464 4.62464 4 5.392 4H16.24C17.0074 4 17.632 4.62464 17.632 5.392V12.336C17.632 13.1034 17.0074 13.728 16.24 13.728ZM5.392 4.32C4.80064 4.32 4.32 4.80064 4.32 5.392V12.336C4.32 12.9274 4.80064 13.408 5.392 13.408H16.24C16.8314 13.408 17.312 12.9274 17.312 12.336V5.392C17.312 4.80064 16.8314 4.32 16.24 4.32H5.392Z" fill="white"/>
<path d="M17.472 11.7824H4.16C4.07168 11.7824 4 11.7107 4 11.6224C4 11.5341 4.07168 11.4624 4.16 11.4624H17.472C17.5603 11.4624 17.632 11.5341 17.632 11.6224C17.632 11.7107 17.5603 11.7824 17.472 11.7824Z" fill="white"/>
<path d="M15.3728 15.1039H6.68802C6.5997 15.1039 6.52802 15.0323 6.52802 14.9439C6.52802 14.8556 6.5997 14.7839 6.68802 14.7839H15.3728C15.4611 14.7839 15.5328 14.8556 15.5328 14.9439C15.5328 15.0323 15.4611 15.1039 15.3728 15.1039Z" fill="white"/>
<path d="M7.84511 15.1039C7.82015 15.1039 7.79519 15.0982 7.77215 15.086C7.69343 15.0457 7.66271 14.949 7.70303 14.8703L8.41343 13.4943C8.45375 13.4156 8.55039 13.3849 8.62911 13.4252C8.70783 13.4655 8.73855 13.5622 8.69823 13.6409L7.98783 15.0169C7.95903 15.0726 7.90335 15.1039 7.84511 15.1039Z" fill="white"/>
<path d="M13.8035 15.104C13.7453 15.104 13.6896 15.0727 13.6614 15.0176L12.951 13.6416C12.9107 13.5629 12.9414 13.4663 13.0202 13.4259C13.0989 13.3856 13.1949 13.4163 13.2358 13.4951L13.9462 14.8711C13.9866 14.9498 13.9558 15.0464 13.8771 15.0867C13.8534 15.0983 13.8285 15.104 13.8035 15.104Z" fill="white"/>
<path d="M7.26399 9.12003C6.20543 9.12003 5.34399 8.25859 5.34399 7.20003C5.34399 6.14147 6.20543 5.28003 7.26399 5.28003C8.32255 5.28003 9.18399 6.14147 9.18399 7.20003C9.18399 8.25859 8.32255 9.12003 7.26399 9.12003ZM7.26399 5.60003C6.38143 5.60003 5.66399 6.31747 5.66399 7.20003C5.66399 8.08259 6.38143 8.80003 7.26399 8.80003C8.14655 8.80003 8.86399 8.08259 8.86399 7.20003C8.86399 6.31747 8.14655 5.60003 7.26399 5.60003Z" fill="white"/>
<path d="M6.20223 8.76355C6.16255 8.76355 6.12287 8.74883 6.09215 8.71939C6.02815 8.65859 6.02559 8.55747 6.08639 8.49347L7.10399 7.42083V5.44003C7.10399 5.35171 7.17567 5.28003 7.26399 5.28003C7.35231 5.28003 7.42399 5.35171 7.42399 5.44003V7.54819L6.31807 8.71363C6.28671 8.74691 6.24447 8.76355 6.20223 8.76355Z" fill="white"/>
<path d="M9.664 10.8788H5.216C5.12768 10.8788 5.056 10.8072 5.056 10.7188C5.056 10.6305 5.12768 10.5588 5.216 10.5588H9.664C9.75232 10.5588 9.824 10.6305 9.824 10.7188C9.824 10.8072 9.75232 10.8788 9.664 10.8788Z" fill="white"/>
<path d="M16.64 9.81887H10.592V5.50399C10.592 5.41567 10.6637 5.34399 10.752 5.34399C10.8403 5.34399 10.912 5.41567 10.912 5.50399V9.49887H16.64C16.7283 9.49887 16.8 9.57055 16.8 9.65887C16.8 9.74719 16.7283 9.81887 16.64 9.81887Z" fill="white"/>
<path d="M12.384 9.81891C12.2957 9.81891 12.224 9.74723 12.224 9.65891V8.70403H11.52V9.65891C11.52 9.74723 11.4483 9.81891 11.36 9.81891C11.2717 9.81891 11.2 9.74723 11.2 9.65891V8.54403C11.2 8.45571 11.2717 8.38403 11.36 8.38403H12.384C12.4723 8.38403 12.544 8.45571 12.544 8.54403V9.65891C12.544 9.74723 12.4723 9.81891 12.384 9.81891Z" fill="white"/>
<path d="M14.112 9.8189C14.0237 9.8189 13.952 9.74722 13.952 9.6589V7.84002H13.248V9.6589C13.248 9.74722 13.1763 9.8189 13.088 9.8189C12.9997 9.8189 12.928 9.74722 12.928 9.6589V7.68002C12.928 7.5917 12.9997 7.52002 13.088 7.52002H14.112C14.2003 7.52002 14.272 7.5917 14.272 7.68002V9.6589C14.272 9.74722 14.2003 9.8189 14.112 9.8189Z" fill="white"/>
<path d="M15.84 9.8189C15.7517 9.8189 15.68 9.74722 15.68 9.6589V7.39202H14.976V9.6589C14.976 9.74722 14.9043 9.8189 14.816 9.8189C14.7277 9.8189 14.656 9.74722 14.656 9.6589V7.23202C14.656 7.1437 14.7277 7.07202 14.816 7.07202H15.84C15.9283 7.07202 16 7.1437 16 7.23202V9.6589C16 9.74722 15.9283 9.8189 15.84 9.8189Z" fill="white"/>
<path d="M7.00289 9.98406H5.24801C5.15969 9.98406 5.08801 9.91238 5.08801 9.82406C5.08801 9.73574 5.15969 9.66406 5.24801 9.66406H7.00289C7.09121 9.66406 7.16289 9.73574 7.16289 9.82406C7.16289 9.91238 7.09121 9.98406 7.00289 9.98406Z" fill="white"/>
</svg>
