<svg width="24" height="24" viewBox="0 0 24 24" fill="none" xmlns="http://www.w3.org/2000/svg">
<path d="M20.5469 8.96912H17.6907C17.2534 6.15095 14.871 4 12.0011 4C9.12904 4 6.74889 6.15095 6.31158 8.96912H3.45769C2.65141 8.96912 2 9.634 2 10.4575V19.5093C2 19.5279 2 20.9813 2.00228 21H3.40075V20.9977C3.41897 21 3.43719 21 3.45769 21H20.5469C20.5651 21 20.5833 21 20.6015 20.9977V19.5653H3.40075V10.4575C3.40075 10.4249 3.4258 10.4015 3.45769 10.4015H6.2592C6.28425 10.6932 6.32753 10.9801 6.3913 11.2554C5.4848 11.2997 4.76506 12.0649 4.76506 13.0027V13.2734C4.76506 14.2392 5.52807 15.0231 6.47102 15.0231H17.529C18.4742 15.0231 19.2395 14.2392 19.2395 13.2734V13.0027C19.2395 12.0649 18.5175 11.2997 17.611 11.2554C17.6747 10.9801 17.7203 10.6932 17.7431 10.4015H20.5469C20.5765 10.4015 20.6015 10.4249 20.6015 10.4575V19.5653H22V10.4575C22 9.634 21.3486 8.96912 20.5469 8.96912ZM6.47102 13.4927C6.35258 13.4927 6.25692 13.3947 6.25692 13.2734V13.0027C6.25692 12.8838 6.35258 12.7858 6.47102 12.7858H6.9721C7.10648 13.0354 7.25908 13.2687 7.42535 13.4927H6.47102ZM16.3355 10.4015C16.3036 10.6955 16.2444 10.9801 16.1578 11.2554C15.9847 11.8223 15.7 12.3402 15.3311 12.7858C15.1147 13.0494 14.8687 13.285 14.5977 13.4927H9.40463C9.13359 13.285 8.88533 13.0494 8.66895 12.7858C8.30225 12.3402 8.01754 11.8223 7.84216 11.2554C7.75561 10.9801 7.69639 10.6955 7.6645 10.4015C7.64628 10.2382 7.63717 10.0726 7.63717 9.90462C7.63717 9.58268 7.67133 9.26773 7.73511 8.96912C8.15647 6.95348 9.91027 5.43475 12.0011 5.43475C14.0943 5.43475 15.8458 6.95348 16.2672 8.96912C16.3287 9.26773 16.3628 9.58268 16.3628 9.90462C16.3628 10.0726 16.3537 10.2382 16.3355 10.4015ZM17.7454 13.0027V13.2734C17.7454 13.3947 17.6497 13.4927 17.529 13.4927H16.5769C16.7432 13.2687 16.8958 13.0354 17.0302 12.7858H17.529C17.6497 12.7858 17.7454 12.8838 17.7454 13.0027Z" fill="white"/>
<path d="M12.4749 10.1006V7.49243H11.5274V10.0936L11.2404 9.79969C11.0172 10.0283 10.794 10.2569 10.5708 10.4856L12.008 11.9576C12.484 11.4701 12.9601 10.9848 13.4361 10.4972C13.1992 10.2803 12.9623 10.0633 12.7255 9.84635L12.4749 10.1006Z" fill="white"/>
</svg>
