<svg width="20" height="20" viewBox="0 0 20 20" fill="none" xmlns="http://www.w3.org/2000/svg">
<path d="M5.78125 8.38281C4.90888 8.38281 4.19922 9.09248 4.19922 9.96484V14.2539C4.19922 15.1263 4.90888 15.8359 5.78125 15.8359C6.65362 15.8359 7.36328 15.1263 7.36328 14.2539V9.96484C7.36328 9.09248 6.65362 8.38281 5.78125 8.38281Z" fill="#1C2127"/>
<path d="M3.14453 9.96467C3.14453 9.81255 3.16461 9.6656 3.18946 9.52051C2.55391 9.72593 2.08984 10.3163 2.08984 11.0194V13.199C2.08984 13.9021 2.55391 14.4925 3.18946 14.6979C3.16461 14.5528 3.14453 14.4059 3.14453 14.2537V9.96467Z" fill="#1C2127"/>
<path d="M14.2188 8.38281C13.3464 8.38281 12.6367 9.09248 12.6367 9.96484V14.2539C12.6367 15.1263 13.3464 15.8359 14.2188 15.8359C14.3773 15.8359 14.5275 15.8054 14.672 15.7618C14.4757 16.4125 13.8779 16.8906 13.1641 16.8906H11.4849C11.2665 16.2781 10.6866 15.8359 10 15.8359C9.12763 15.8359 8.41797 16.5456 8.41797 17.418C8.41797 18.2903 9.12763 19 10 19C10.6866 19 11.2665 18.5578 11.4849 17.9453H13.1641C14.6179 17.9453 15.8008 16.7624 15.8008 15.3086V14.2539V9.96484C15.8008 9.09248 15.0911 8.38281 14.2188 8.38281Z" fill="#1C2127"/>
<path d="M16.8105 9.52051C16.8354 9.6656 16.8555 9.81255 16.8555 9.96467V14.2537C16.8555 14.4059 16.8354 14.5528 16.8105 14.6979C17.4461 14.4925 17.9102 13.9021 17.9102 13.199V11.0194C17.9102 10.3163 17.4461 9.72593 16.8105 9.52051Z" fill="#1C2127"/>
<path d="M10 1C5.63809 1 2.08984 4.54825 2.08984 8.91016V8.92362C2.40404 8.68575 2.76755 8.5117 3.16868 8.43375C3.41516 4.87601 6.3808 2.05469 10 2.05469C13.6192 2.05469 16.5848 4.87601 16.8313 8.43372C17.2324 8.51166 17.5959 8.68575 17.9102 8.92359V8.91016C17.9102 4.54825 14.3619 1 10 1Z" fill="#1C2127"/>
</svg>
