<svg width="16" height="16" viewBox="0 0 16 16" fill="none" xmlns="http://www.w3.org/2000/svg">
<mask id="mask0_2347_8166" style="mask-type:luminance" maskUnits="userSpaceOnUse" x="2" y="0" width="12" height="16">
<path d="M14 0.666748H2V15.8077H14V0.666748Z" fill="white"/>
</mask>
<g mask="url(#mask0_2347_8166)">
<path d="M10.779 9.75509C9.22586 9.75509 7.55432 9.28149 7.55432 8.24375C7.55432 7.20602 9.22586 6.73242 10.779 6.73242C12.3321 6.73242 14.0001 7.20255 14.0001 8.24375C14.0001 9.28495 12.3286 9.75509 10.779 9.75509ZM8.63732 8.24375C8.84279 8.41442 9.57759 8.71042 10.779 8.71042C11.9803 8.71042 12.7117 8.41442 12.9171 8.24375C12.7117 8.06962 11.9769 7.77715 10.779 7.77715C9.58106 7.77715 8.84279 8.06962 8.63732 8.24375Z" fill="#68CFEE"/>
<path d="M10.779 11.7585C9.22586 11.7585 7.55432 11.2849 7.55432 10.2471H8.59905C8.60332 10.2288 8.60332 10.2097 8.59905 10.1914C8.68959 10.3446 9.44872 10.7137 10.7929 10.7137C12.1371 10.7137 12.8823 10.3446 12.9833 10.1914C12.9789 10.2097 12.9789 10.2288 12.9833 10.2471H14.0279C14.0001 11.2849 12.3286 11.7585 10.779 11.7585Z" fill="#68CFEE"/>
<path d="M10.7791 13.8994C9.22597 13.8994 7.5719 13.4328 7.5719 12.3951H8.61657C8.62203 12.3769 8.62203 12.3576 8.61657 12.3394C8.70717 12.4926 9.4663 12.8617 10.8104 12.8617C12.1546 12.8617 12.8998 12.4926 13.0008 12.3394C12.9954 12.3576 12.9954 12.3769 13.0008 12.3951H14.0455C14.0002 13.4328 12.3287 13.8994 10.7791 13.8994Z" fill="#68CFEE"/>
<path d="M10.779 15.8079C9.22586 15.8079 7.55432 15.3344 7.55432 14.2967V8.24438H8.59905V14.2479C8.72785 14.4081 9.48006 14.7528 10.779 14.7528C12.0779 14.7528 12.8265 14.4046 12.9554 14.2479V8.24438H14.0001V14.2967C14.0001 15.3344 12.3286 15.8079 10.779 15.8079Z" fill="#68CFEE"/>
<path d="M5.22461 11.8093C3.6715 11.8093 2 11.3357 2 10.2945C2 9.25334 3.6715 8.7832 5.22461 8.7832C6.77773 8.7832 8.4492 9.2568 8.4492 10.2945C8.4492 11.3323 6.77773 11.8093 5.22461 11.8093ZM3.08299 10.2945C3.29193 10.4687 4.02321 10.7611 5.22461 10.7611C6.426 10.7611 7.15727 10.4687 7.36273 10.2945C7.15727 10.1239 6.426 9.82787 5.22461 9.82787C4.02321 9.82787 3.29193 10.1239 3.08299 10.2945Z" fill="#68CFEE"/>
<path d="M5.22461 13.8998C3.67151 13.8998 2 13.4332 2 12.3954H3.04469C3.04941 12.3772 3.04941 12.358 3.04469 12.3398C3.1213 12.5069 3.88044 12.8551 5.22461 12.8551C6.56877 12.8551 7.314 12.486 7.415 12.3328C7.41027 12.351 7.41027 12.3702 7.415 12.3885H8.45967C8.4492 13.4332 6.77773 13.8998 5.22461 13.8998Z" fill="#68CFEE"/>
<path d="M5.22461 15.8074C3.6715 15.8074 2 15.3338 2 14.2961V10.2949H3.04469V14.2473C3.17702 14.4075 3.92571 14.7523 5.22461 14.7523C6.52351 14.7523 7.2722 14.4041 7.40453 14.2473V10.2949H8.4492V14.2961C8.4492 15.3338 6.77773 15.8074 5.22461 15.8074Z" fill="#68CFEE"/>
<path d="M4.91819 8.09368C4.84959 8.09381 4.78164 8.08035 4.71828 8.05401C4.65492 8.02775 4.59741 7.98908 4.54907 7.94041L2.60246 5.99383C2.55361 5.94557 2.51482 5.8881 2.48835 5.82474C2.46188 5.76137 2.44824 5.69338 2.44824 5.62471C2.44824 5.55604 2.46188 5.48805 2.48835 5.42469C2.51482 5.36133 2.55361 5.30385 2.60246 5.25559C2.70085 5.15861 2.83344 5.10425 2.97158 5.10425C3.10973 5.10425 3.24232 5.15861 3.34071 5.25559L4.92864 6.84348L6.5897 5.27299C6.6908 5.17787 6.8256 5.12681 6.9644 5.13106C7.10314 5.1353 7.23454 5.1945 7.32967 5.29563C7.4248 5.39676 7.47587 5.53154 7.4716 5.67031C7.4674 5.80909 7.4082 5.9405 7.30707 6.03562L5.27687 7.95088C5.17974 8.04221 5.05153 8.09328 4.91819 8.09368Z" fill="#68CFEE"/>
<path d="M4.95985 8.11542C4.82131 8.11542 4.68845 8.06035 4.59049 7.96241C4.49253 7.86441 4.4375 7.73155 4.4375 7.59301V1.18909C4.4375 1.05056 4.49253 0.917695 4.59049 0.819741C4.68845 0.721781 4.82131 0.666748 4.95985 0.666748C5.09838 0.666748 5.23124 0.721781 5.3292 0.819741C5.42716 0.917695 5.48219 1.05056 5.48219 1.18909V7.59301C5.48219 7.73155 5.42716 7.86441 5.3292 7.96241C5.23124 8.06035 5.09838 8.11542 4.95985 8.11542Z" fill="#68CFEE"/>
</g>
</svg>
