<svg width="25" height="24" viewBox="0 0 25 24" fill="none" xmlns="http://www.w3.org/2000/svg">
<mask id="path-1-inside-1_4_23751" fill="white">
<path d="M12.9982 2.0184C12.9669 2.0158 12.9357 2.01579 12.907 2.01318C12.9278 2.01318 12.9487 2.01579 12.9695 2.01579C12.9774 2.01579 12.9878 2.0158 12.9982 2.0184Z"/>
</mask>
<path d="M12.9982 2.0184C12.9669 2.0158 12.9357 2.01579 12.907 2.01318C12.9278 2.01318 12.9487 2.01579 12.9695 2.01579C12.9774 2.01579 12.9878 2.0158 12.9982 2.0184Z" fill="#A7B1BC"/>
<path d="M12.9982 2.0184L12.9151 3.01495L13.2408 1.04827L12.9982 2.0184ZM12.907 2.01318V1.01318L12.8164 3.00908L12.907 2.01318ZM12.9982 2.0184L13.0813 1.02186C13.06 1.02009 13.0414 1.01897 13.0271 1.01823C13.0135 1.01751 13.0006 1.01698 12.9942 1.0167C12.9903 1.01654 12.988 1.01643 12.986 1.01634C12.9841 1.01626 12.9835 1.01622 12.9836 1.01623C12.9837 1.01623 12.985 1.01631 12.9873 1.01646C12.9895 1.01662 12.993 1.01688 12.9975 1.01729L12.907 2.01318L12.8164 3.00908C12.8394 3.01117 12.8595 3.01243 12.8743 3.01324C12.8886 3.01402 12.902 3.01459 12.909 3.01488C12.9284 3.01571 12.9233 3.01563 12.9151 3.01495L12.9982 2.0184ZM12.907 2.01318V3.01318C12.8918 3.01318 12.8805 3.01271 12.8757 3.01249C12.8719 3.01231 12.8693 3.01213 12.8758 3.01254C12.8797 3.01278 12.8927 3.01361 12.907 3.01429C12.9222 3.015 12.9439 3.01579 12.9695 3.01579V2.01579V1.01579C12.9847 1.01579 12.996 1.01626 13.0008 1.01648C13.0047 1.01667 13.0072 1.01685 13.0007 1.01644C12.9968 1.0162 12.9838 1.01536 12.9695 1.01469C12.9543 1.01398 12.9326 1.01318 12.907 1.01318V2.01318ZM12.9695 2.01579V3.01579C12.9758 3.01579 12.9491 3.01609 12.9162 3.0139C12.8817 3.01159 12.8247 3.0058 12.7556 2.98854L12.9982 2.0184L13.2408 1.04827C13.1613 1.02839 13.0939 1.02131 13.0496 1.01835C13.007 1.0155 12.971 1.01579 12.9695 1.01579V2.01579Z" fill="#A7B1BC" mask="url(#path-1-inside-1_4_23751)"/>
<mask id="path-3-inside-2_4_23751" fill="white">
<path d="M12.9982 2.0184C12.9669 2.0158 12.9357 2.01579 12.907 2.01318C12.9278 2.01318 12.9487 2.01579 12.9695 2.01579C12.9774 2.01579 12.9878 2.0158 12.9982 2.0184Z"/>
</mask>
<path d="M12.9982 2.0184C12.9669 2.0158 12.9357 2.01579 12.907 2.01318C12.9278 2.01318 12.9487 2.01579 12.9695 2.01579C12.9774 2.01579 12.9878 2.0158 12.9982 2.0184Z" fill="#A7B1BC"/>
<path d="M12.9982 2.0184L12.9151 3.01495L13.2408 1.04827L12.9982 2.0184ZM12.907 2.01318V1.01318L12.8164 3.00908L12.907 2.01318ZM12.9982 2.0184L13.0813 1.02186C13.06 1.02009 13.0414 1.01897 13.0271 1.01823C13.0135 1.01751 13.0006 1.01698 12.9942 1.0167C12.9903 1.01654 12.988 1.01643 12.986 1.01634C12.9841 1.01626 12.9835 1.01622 12.9836 1.01623C12.9837 1.01623 12.985 1.01631 12.9873 1.01646C12.9895 1.01662 12.993 1.01688 12.9975 1.01729L12.907 2.01318L12.8164 3.00908C12.8394 3.01117 12.8595 3.01243 12.8743 3.01324C12.8886 3.01402 12.902 3.01459 12.909 3.01488C12.9284 3.01571 12.9233 3.01563 12.9151 3.01495L12.9982 2.0184ZM12.907 2.01318V3.01318C12.8918 3.01318 12.8805 3.01271 12.8757 3.01249C12.8719 3.01231 12.8693 3.01213 12.8758 3.01254C12.8797 3.01278 12.8927 3.01361 12.907 3.01429C12.9222 3.015 12.9439 3.01579 12.9695 3.01579V2.01579V1.01579C12.9847 1.01579 12.996 1.01626 13.0008 1.01648C13.0047 1.01667 13.0072 1.01685 13.0007 1.01644C12.9968 1.0162 12.9838 1.01536 12.9695 1.01469C12.9543 1.01398 12.9326 1.01318 12.907 1.01318V2.01318ZM12.9695 2.01579V3.01579C12.9758 3.01579 12.9491 3.01609 12.9162 3.0139C12.8817 3.01159 12.8247 3.0058 12.7556 2.98854L12.9982 2.0184L13.2408 1.04827C13.1613 1.02839 13.0939 1.02131 13.0496 1.01835C13.007 1.0155 12.971 1.01579 12.9695 1.01579V2.01579Z" fill="#A7B1BC" mask="url(#path-3-inside-2_4_23751)"/>
<path d="M12.3986 7.5293C10.4958 7.5293 8.95532 9.06997 8.95532 10.973C8.95532 12.8682 10.4958 14.4089 12.3986 14.4089C14.3014 14.4089 15.8418 12.8682 15.8418 10.973C15.8418 9.06997 14.3014 7.5293 12.3986 7.5293ZM12.3986 13.0298C11.2621 13.0298 10.3342 12.107 10.3342 10.9704C10.3342 9.82857 11.2647 8.90574 12.3986 8.90574C13.5324 8.90574 14.463 9.82857 14.463 10.9704C14.4656 12.107 13.5351 13.0298 12.3986 13.0298Z" fill="#A7B1BC"/>
<path d="M18.8577 17.7064C18.5527 18.0531 18.2191 18.3737 17.8646 18.6657C17.1608 18.1469 16.3033 17.8497 15.3675 17.8497H9.435C8.49925 17.8497 7.63907 18.1469 6.9379 18.6657C6.58341 18.3737 6.24979 18.0557 5.94482 17.7064C6.91707 16.9321 8.14474 16.4707 9.47929 16.4707H15.3284C16.6578 16.4733 17.8854 16.9347 18.8577 17.7064Z" fill="#A7B1BC"/>
<path d="M5.69714 17.4173C5.77273 17.5163 5.85616 17.6154 5.93957 17.7093L5.94218 17.7066C5.85616 17.6128 5.77534 17.5163 5.69714 17.4173ZM18.8602 17.7066L18.8628 17.7093C19.1991 17.3339 19.5041 16.922 19.7673 16.4814C19.5015 16.9168 19.1939 17.3286 18.8602 17.7066ZM21.2296 16.6952C21.3808 16.4162 21.5163 16.1321 21.6336 15.8375C21.5111 16.1321 21.3756 16.4188 21.2296 16.6952ZM21.8578 15.2484C21.9281 15.0528 21.9881 14.8521 22.0428 14.6514C21.9881 14.8521 21.9255 15.0502 21.8578 15.2484ZM21.631 15.8375C21.7144 15.6446 21.79 15.4465 21.8552 15.2484C21.79 15.4465 21.7144 15.642 21.631 15.8375ZM5.69714 17.4173C5.77273 17.5163 5.85616 17.6154 5.93957 17.7093L5.94218 17.7066C5.85616 17.6128 5.77534 17.5163 5.69714 17.4173ZM6.93526 18.666C6.93526 18.666 6.93265 18.666 6.93265 18.6686C7.21155 18.898 7.50609 19.1118 7.81627 19.3021C7.5087 19.1091 7.21416 18.8954 6.93526 18.666ZM17.8619 18.666C17.7681 18.7416 17.6743 18.8172 17.5778 18.8902C17.6769 18.8198 17.7707 18.7442 17.8645 18.6686C17.8645 18.666 17.8619 18.666 17.8619 18.666Z" fill="#A7B1BC"/>
<path d="M3.83093 12.9619C3.90131 13.5954 4.03944 14.208 4.24015 14.792C4.24275 14.7894 4.24276 14.7894 4.24537 14.7894C4.04205 14.2002 3.90652 13.5876 3.83093 12.9619ZM5.8953 4.40355C5.91876 4.38269 5.94483 4.36184 5.96829 4.34359C6.0126 4.30449 6.05953 4.26539 6.10645 4.22889C6.09081 4.23932 6.07516 4.24975 6.06212 4.26278C6.00478 4.3071 5.95004 4.35402 5.8953 4.40355ZM5.47043 4.78677C5.54342 4.71638 5.619 4.64598 5.6972 4.5782C5.76236 4.51824 5.82753 4.4609 5.8953 4.40355C5.8536 4.43483 5.8119 4.47133 5.7728 4.50783C5.67115 4.59907 5.56948 4.69031 5.47043 4.78677ZM6.41661 3.98906C6.65641 3.81179 6.90145 3.64233 7.15429 3.48592C6.89884 3.63972 6.65381 3.80658 6.41661 3.98906ZM9.18477 4.00209C9.46628 3.89 9.75301 3.79093 10.0449 3.7049C9.7504 3.78832 9.46628 3.88739 9.18477 4.00209ZM11.1579 3.46768C11.3639 3.43901 11.5724 3.41554 11.7835 3.3999C11.5698 3.41294 11.3639 3.4364 11.1579 3.46768ZM17.5857 3.44943C18.6153 4.07509 19.525 4.88322 20.2652 5.82691C19.5406 4.89365 18.6388 4.08291 17.5857 3.44943ZM16.6916 21.0303V21.0329C16.8194 20.9729 16.9445 20.9103 17.067 20.8426C16.9445 20.9077 16.8194 20.9703 16.6916 21.0303ZM16.1703 19.7477C16.1703 19.7503 16.1729 19.7503 16.1729 19.7529C16.2876 19.6955 16.4023 19.6382 16.5118 19.5756C16.3971 19.6356 16.2876 19.6929 16.1703 19.7477ZM20.3982 8.78572C20.5102 9.06726 20.6093 9.35401 20.6953 9.64598C20.6119 9.35141 20.5128 9.06465 20.3982 8.78572ZM20.4112 6.01721C20.6041 6.27529 20.7839 6.54119 20.9507 6.81491C20.7839 6.54119 20.6067 6.27529 20.4112 6.01721ZM20.9325 10.7565C20.9612 10.9625 20.9846 11.171 21.0003 11.3822C20.9846 11.171 20.9638 10.9625 20.9325 10.7565ZM22.3974 11.7758C22.4 11.9088 22.3974 12.0417 22.3948 12.1747C22.3974 12.1173 22.4 12.06 22.4 12C22.3974 11.9244 22.3974 11.8514 22.3974 11.7758ZM4.79795 16.0563H4.79534C4.85008 16.1632 4.91005 16.2701 4.9726 16.3718C4.91265 16.2675 4.85269 16.1632 4.79795 16.0563ZM8.0822 21.0172L8.07959 21.0198C8.08741 21.0224 8.09264 21.025 8.09786 21.0276C8.09525 21.025 8.08741 21.0198 8.0822 21.0172ZM14.8879 20.2508C14.3901 20.402 13.8792 20.5089 13.3605 20.5688C13.887 20.5115 14.3979 20.4072 14.8905 20.2586C14.8879 20.256 14.8879 20.2534 14.8879 20.2508Z" fill="#A7B1BC"/>
<path d="M22.3975 11.7211C22.3975 11.7393 22.4001 11.7576 22.3975 11.7758C22.4001 11.9088 22.3975 12.0417 22.3949 12.1747C22.3949 12.2685 22.3923 12.3597 22.3897 12.451C22.387 12.4953 22.3844 12.5396 22.3818 12.5865C22.3818 12.6309 22.3766 12.6752 22.374 12.7195C22.3688 12.7977 22.3636 12.8759 22.3558 12.9541V12.9672C22.3427 13.0897 22.3271 13.2122 22.3114 13.3347C22.3088 13.3712 22.3036 13.4103 22.2958 13.4494C22.2724 13.6084 22.2463 13.7701 22.2124 13.9291C22.1811 14.0907 22.1473 14.2497 22.1055 14.4114C22.0873 14.4896 22.0665 14.5704 22.043 14.6512C21.9883 14.8519 21.9257 15.0501 21.8579 15.2482C21.7901 15.4463 21.7145 15.6418 21.6337 15.8373C21.5112 16.1319 21.3757 16.4187 21.2297 16.695C21.2271 16.7002 21.2245 16.7028 21.2245 16.7054C21.1568 16.8332 21.0864 16.9583 21.0134 17.0808C21.003 17.1017 20.9925 17.1199 20.9795 17.1382C20.9248 17.232 20.8674 17.3233 20.8075 17.4145C20.7736 17.4692 20.7371 17.524 20.7006 17.5761C20.6667 17.6309 20.6276 17.6856 20.5885 17.7404C20.5364 17.816 20.4816 17.8916 20.4269 17.9645C20.4061 17.9984 20.38 18.0323 20.3513 18.0636C20.2784 18.1627 20.2028 18.2591 20.1246 18.353C20.0307 18.4677 19.9317 18.5798 19.8326 18.6919C19.5485 18.3243 19.2227 17.9932 18.863 17.7091C19.1992 17.3337 19.5042 16.9218 19.7675 16.4812C19.8379 16.3717 19.9004 16.2622 19.9578 16.1502C20.0151 16.0537 20.0672 15.9546 20.1141 15.8556C20.1272 15.8321 20.1376 15.8113 20.148 15.7878C20.2002 15.6835 20.2497 15.5793 20.294 15.4724C20.2992 15.4645 20.3018 15.4567 20.3044 15.4463C20.3253 15.402 20.3461 15.3577 20.3644 15.3107C20.3904 15.2508 20.4139 15.1908 20.4347 15.1309C20.4712 15.0422 20.5051 14.951 20.5364 14.8597C20.5546 14.8076 20.5729 14.7555 20.5911 14.7007C20.638 14.5626 20.6771 14.427 20.7162 14.2888C20.7397 14.2028 20.7632 14.1168 20.784 14.0308C20.8179 13.8848 20.8492 13.7388 20.8753 13.5928C20.8987 13.4807 20.917 13.3686 20.9326 13.2565C20.9404 13.2174 20.9456 13.1783 20.9482 13.1418C20.9639 13.0401 20.9743 12.9411 20.9847 12.8394C20.9873 12.8186 20.9899 12.7951 20.9899 12.7716C21.0004 12.6569 21.0082 12.5422 21.0134 12.4275V12.4093C21.0212 12.2763 21.0238 12.1434 21.0238 12.013C21.0238 11.9035 21.0212 11.7941 21.0186 11.6872C21.0134 11.5855 21.0082 11.4838 21.0004 11.3822C20.9873 11.171 20.9639 10.9625 20.9326 10.7565C20.9144 10.6236 20.8909 10.4932 20.8674 10.3629C20.8205 10.123 20.7632 9.88581 20.6954 9.6512C20.698 9.64859 20.698 9.64858 20.6954 9.64598C20.612 9.3514 20.5129 9.06464 20.3982 8.78571C20.3618 8.69186 20.3227 8.59801 20.281 8.50677C20.281 8.50416 20.281 8.50156 20.2784 8.49896C20.1741 8.26173 20.0568 8.03232 19.9317 7.80813C19.8848 7.71689 19.83 7.62565 19.7753 7.53702C19.7753 7.53441 19.7727 7.53441 19.7727 7.5318C19.7257 7.45098 19.6762 7.37279 19.6215 7.29458C19.4495 7.02346 19.2592 6.76277 19.0507 6.51251C18.8656 6.28832 18.6675 6.06933 18.459 5.866C18.2505 5.65745 18.0315 5.46193 17.8021 5.27945C17.4763 5.01355 17.1244 4.77111 16.7517 4.55474C16.6135 4.47132 16.4702 4.39572 16.3242 4.32012C16.2616 4.28883 16.1991 4.25756 16.1365 4.22888C16.074 4.19499 16.0114 4.16631 15.9463 4.14024C15.8681 4.10374 15.7899 4.06986 15.7117 4.03597C15.1252 3.79353 14.5283 3.61887 13.9262 3.51199C13.8636 3.49895 13.8011 3.48853 13.7385 3.48071C13.6577 3.46507 13.5769 3.45464 13.4987 3.44682C13.4257 3.43639 13.3554 3.42856 13.2824 3.42074C13.2094 3.41292 13.1364 3.40772 13.0634 3.4025C12.735 3.37644 12.4092 3.36861 12.0886 3.38164C11.9869 3.38686 11.8853 3.39207 11.7836 3.39989C11.5725 3.41293 11.3639 3.43639 11.158 3.46768C11.0251 3.48592 10.8948 3.50939 10.7644 3.53285C10.5246 3.57977 10.2874 3.63712 10.0529 3.7049C10.0502 3.70229 10.0502 3.70229 10.0476 3.7049C9.7531 3.78832 9.46636 3.88738 9.18746 4.00208C9.09363 4.03858 8.9998 4.07769 8.90858 4.1194C8.90597 4.1194 8.90335 4.11938 8.90075 4.12199C8.66355 4.22627 8.43417 4.34358 8.21001 4.46871C8.11878 4.51563 8.02757 4.57039 7.93895 4.62513C7.93634 4.62513 7.93633 4.62773 7.93373 4.62773C7.85292 4.67465 7.77472 4.72419 7.69652 4.77893C7.42544 4.95098 7.16479 5.14129 6.91456 5.34984C6.69039 5.53493 6.47145 5.73306 6.26814 5.94161C6.05961 6.15016 5.86412 6.36912 5.68166 6.59853C5.4158 6.92439 5.17338 7.27633 4.95703 7.64911C4.87363 7.78728 4.79803 7.93066 4.72244 8.07664C4.69116 8.13921 4.65989 8.20177 4.63122 8.26433C4.59733 8.3269 4.56867 8.38947 4.5426 8.45465C4.50611 8.53285 4.47222 8.61105 4.43833 8.68925C4.19592 9.2758 4.02128 9.87279 3.91441 10.475C3.90138 10.5375 3.89096 10.6001 3.88314 10.6627C3.8675 10.7435 3.85707 10.8243 3.84925 10.9025C3.83882 10.9755 3.83101 11.0459 3.82319 11.1189C3.81537 11.1919 3.81014 11.2649 3.80493 11.3379C3.77626 11.6846 3.77106 12.0313 3.7893 12.3728C3.79452 12.4797 3.79972 12.5839 3.80754 12.6882C3.81536 12.7795 3.8232 12.8707 3.83363 12.9619C3.904 13.5954 4.04214 14.208 4.24284 14.792C4.39142 15.2325 4.57648 15.6548 4.79543 16.0563C4.85017 16.1632 4.91013 16.2701 4.97269 16.3717C5.02221 16.4578 5.07434 16.5438 5.12908 16.6272C5.15253 16.6637 5.176 16.6976 5.19946 16.7341C5.23074 16.7862 5.26463 16.8384 5.30112 16.8879C5.34543 16.9531 5.38972 17.0182 5.43924 17.0808C5.45227 17.0991 5.46531 17.1173 5.47834 17.1356C5.54872 17.232 5.61909 17.3259 5.69729 17.4171C5.77288 17.5162 5.8563 17.6152 5.93971 17.7091C6.24207 18.0532 6.57569 18.3738 6.93279 18.6684C7.21169 18.8978 7.50623 19.1116 7.81641 19.3019C7.91546 19.3671 8.01713 19.427 8.11878 19.4844C8.13182 19.4948 8.14486 19.5026 8.1605 19.5078C8.25173 19.5626 8.34555 19.6121 8.44199 19.6616C8.44981 19.6668 8.46023 19.6721 8.47066 19.6773C8.56971 19.7268 8.67137 19.7763 8.77303 19.8233C8.87729 19.8728 8.98415 19.9197 9.09102 19.964C9.17443 19.9979 9.26044 20.0318 9.34646 20.0657C9.39598 20.0839 9.44553 20.1048 9.49766 20.1204C9.56543 20.1465 9.63579 20.17 9.70616 20.1934C9.76351 20.2117 9.82086 20.2299 9.88081 20.2482C9.9955 20.2847 10.1076 20.316 10.2197 20.3446C10.2848 20.3629 10.3526 20.3785 10.4178 20.3942C10.4517 20.402 10.4881 20.4098 10.522 20.4176C10.6419 20.4463 10.7618 20.4698 10.8817 20.4906C10.9677 20.5063 11.0564 20.5193 11.145 20.5323C11.1841 20.5401 11.2258 20.5454 11.2675 20.5506C11.3874 20.5662 11.5099 20.5793 11.6324 20.5897C11.7784 20.6053 11.9244 20.6131 12.0703 20.6157C12.1746 20.621 12.2814 20.6236 12.3857 20.6236C12.5004 20.6236 12.6151 20.6236 12.7272 20.6157C12.8184 20.6131 12.907 20.6105 12.993 20.6027C13.0087 20.6027 13.0243 20.6001 13.0373 20.6001C13.1312 20.5949 13.225 20.5845 13.3163 20.574C13.3319 20.5714 13.3449 20.5714 13.3606 20.5688C13.8871 20.5115 14.398 20.4072 14.8906 20.2586C15.3363 20.1257 15.7664 19.9562 16.1756 19.7529C16.2903 19.6955 16.405 19.6382 16.5145 19.5756C16.624 19.513 16.736 19.4505 16.8455 19.3853C16.9263 19.3384 17.0071 19.2888 17.0853 19.2341C17.1505 19.195 17.213 19.1533 17.2756 19.109C17.2834 19.1038 17.2912 19.0985 17.299 19.0907C17.3955 19.0282 17.4893 18.9604 17.5806 18.89C17.6796 18.8196 17.7735 18.744 17.8673 18.6684C18.2452 18.9291 18.5763 19.2602 18.8369 19.6434C18.7483 19.719 18.6571 19.792 18.5658 19.8624C18.5189 19.9015 18.472 19.938 18.4225 19.9719C18.3443 20.0344 18.2661 20.0918 18.1879 20.1465C18.1566 20.17 18.1279 20.1908 18.0967 20.2117C18.0498 20.2456 18.0028 20.2768 17.9559 20.3055C17.8986 20.3472 17.8412 20.3863 17.7839 20.4202C17.7239 20.4593 17.6614 20.4984 17.5988 20.5375C17.5024 20.5975 17.4033 20.6575 17.3043 20.7122C17.2261 20.7591 17.1479 20.8008 17.0697 20.8425C16.9472 20.9077 16.8221 20.9703 16.6943 21.0302C15.8681 21.4265 14.9766 21.7106 14.0435 21.8618C14.033 21.8644 14.02 21.8644 14.0096 21.867C13.9366 21.8775 13.8662 21.8905 13.7959 21.8983C13.7098 21.9114 13.6264 21.9218 13.5404 21.9322C13.4153 21.9479 13.2876 21.9609 13.1572 21.9687C13.0347 21.9791 12.9122 21.987 12.7897 21.9922C12.6542 21.9974 12.5186 22 12.3857 22C12.2371 22 12.0912 21.9974 11.9426 21.9896C11.7914 21.9818 11.6403 21.9713 11.4917 21.9583C11.3483 21.9453 11.2076 21.9296 11.0668 21.9114C11.0512 21.9114 11.0381 21.9088 11.0277 21.9062C10.8922 21.8879 10.7592 21.8671 10.6237 21.841C10.608 21.841 10.5924 21.8358 10.5768 21.8332C10.4412 21.8097 10.3057 21.781 10.1727 21.7497H10.1649C10.045 21.7211 9.92512 21.6924 9.80521 21.6585C9.70616 21.6324 9.60711 21.6037 9.50806 21.5725C9.34906 21.5255 9.19008 21.4734 9.03368 21.4161C8.9581 21.39 8.88251 21.3613 8.80692 21.3326C8.72611 21.3014 8.64269 21.2675 8.56188 21.2336C8.50975 21.2127 8.45763 21.1893 8.4055 21.1658C8.30905 21.1241 8.21262 21.0824 8.11878 21.0354C8.11096 21.0328 8.10576 21.0302 8.10055 21.0276C8.09534 21.025 8.09011 21.0198 8.0849 21.0172L8.08229 21.0198C6.86763 20.4411 5.82242 19.6408 4.97008 18.6919C4.89449 18.6084 4.82148 18.525 4.75111 18.439C4.70419 18.3843 4.6599 18.3295 4.61559 18.2748C4.52436 18.1627 4.43834 18.048 4.35233 17.9333C4.29498 17.8551 4.23763 17.7742 4.18029 17.6934C4.1438 17.6413 4.10729 17.5865 4.0708 17.5318C4.02649 17.464 3.98218 17.3962 3.93786 17.3259C3.89355 17.2581 3.85185 17.1877 3.81015 17.1173C3.64333 16.8358 3.48953 16.5464 3.34878 16.2466C3.3149 16.171 3.27843 16.098 3.24715 16.0224C3.21327 15.9468 3.18199 15.8712 3.15071 15.7956C3.08816 15.6418 3.02819 15.488 2.97345 15.329H2.97084C2.96042 15.3029 2.9526 15.2742 2.94478 15.2456C2.9109 15.1517 2.87962 15.0579 2.85095 14.9614C2.82489 14.8832 2.80403 14.805 2.78057 14.7242C2.75711 14.646 2.73626 14.5652 2.71541 14.487C2.69716 14.414 2.67893 14.3436 2.66329 14.2706C2.65286 14.2211 2.64241 14.1741 2.63198 14.1272C2.62155 14.0803 2.61113 14.0334 2.6007 13.9838C2.57985 13.8874 2.559 13.7883 2.54337 13.6919C2.51991 13.5511 2.49906 13.4103 2.48081 13.2696C2.46257 13.1288 2.44952 12.988 2.43649 12.8472C2.41303 12.5657 2.40002 12.2842 2.40002 12C2.40002 11.9009 2.4 11.8019 2.40521 11.7002C2.40782 11.6272 2.41043 11.5568 2.41304 11.4864C2.4365 11.0146 2.49385 10.5401 2.58769 10.0683C2.60333 9.98748 2.62156 9.90928 2.6372 9.82846C2.65544 9.74765 2.67371 9.66684 2.69457 9.58863C2.71542 9.50782 2.73627 9.42701 2.75712 9.3488C2.80404 9.17936 2.85616 9.00991 2.9109 8.84307C2.98649 8.61627 3.0725 8.38686 3.16634 8.16007C3.17155 8.14964 3.17678 8.1366 3.18199 8.12617C3.2263 8.01669 3.2732 7.90981 3.32272 7.80292C3.36964 7.70386 3.41657 7.6048 3.46609 7.50574C3.63031 7.17988 3.81015 6.86705 4.00564 6.56465C4.03952 6.51252 4.07341 6.46037 4.1073 6.41084C4.19853 6.27789 4.28977 6.14494 4.38622 6.0172C4.43574 5.95463 4.48264 5.88947 4.53217 5.8269C4.66771 5.65485 4.81107 5.4854 4.95703 5.32117C5.03002 5.24035 5.1056 5.15954 5.18119 5.07873C5.27503 4.97967 5.37408 4.88321 5.47313 4.78676C5.54611 4.71637 5.6217 4.64597 5.6999 4.5782C5.76506 4.51824 5.83023 4.46089 5.898 4.40354C5.92145 4.38268 5.94753 4.36183 5.97099 4.34359C6.0153 4.30448 6.06222 4.26538 6.10914 4.22888C6.2108 4.14807 6.31244 4.06726 6.4167 3.98905C6.6565 3.81178 6.90154 3.64232 7.15437 3.48591C7.23778 3.43377 7.32379 3.38425 7.40981 3.33472C7.45151 3.30865 7.49322 3.28518 7.53753 3.26172C7.58444 3.23305 7.63395 3.20698 7.68348 3.18091C7.68348 3.18091 7.68348 3.18091 7.68609 3.18091C7.80859 3.11313 7.93633 3.05057 8.06406 2.988C8.12661 2.95672 8.18916 2.92804 8.25433 2.89936C8.35338 2.85504 8.45243 2.81073 8.55409 2.76902C8.6401 2.73252 8.72612 2.69603 8.81474 2.66214C8.89033 2.63347 8.97114 2.60479 9.04934 2.57611C9.09626 2.55786 9.14576 2.54222 9.19268 2.52658C9.27088 2.50051 9.34908 2.47445 9.42728 2.45099C9.48723 2.43013 9.54977 2.41188 9.60972 2.39624C9.70616 2.36756 9.80261 2.34149 9.90166 2.31542C10.0033 2.28935 10.1076 2.26329 10.2119 2.23983C10.2822 2.22419 10.3526 2.20855 10.4256 2.19552C10.5768 2.16423 10.7253 2.13817 10.8765 2.1147C11.1163 2.07821 11.3587 2.04953 11.6037 2.03128C11.7393 2.02085 11.8774 2.01303 12.0156 2.00781C12.1433 2.0026 12.271 2 12.4014 2C12.4665 2 12.5317 2 12.5942 2.00261H12.6177C12.6907 2.00522 12.761 2.00521 12.834 2.01042C12.8575 2.01042 12.881 2.01303 12.907 2.01303C12.9357 2.01564 12.967 2.01564 12.9982 2.01825C13.0087 2.01825 13.0191 2.01824 13.0295 2.02084C13.1051 2.02345 13.1833 2.03127 13.2589 2.03648C13.3215 2.0417 13.3814 2.04691 13.444 2.05473C13.4831 2.05734 13.5196 2.06257 13.5587 2.06778C13.5769 2.06778 13.5977 2.07038 13.616 2.07298C13.6629 2.0782 13.7098 2.08341 13.7568 2.09123C13.7672 2.09384 13.7802 2.09385 13.7906 2.09645C13.861 2.10688 13.9288 2.11731 13.9992 2.12773C14.0669 2.13816 14.1321 2.14859 14.1973 2.16163C14.3511 2.18769 14.5048 2.21897 14.6586 2.25547C14.7394 2.27372 14.8202 2.29457 14.8984 2.31542C14.9792 2.33628 15.06 2.35713 15.1382 2.38059C15.5084 2.48487 15.8759 2.61262 16.2382 2.76381C16.4076 2.8342 16.5718 2.90719 16.7361 2.988C16.882 3.05839 17.0254 3.13139 17.1661 3.20699C17.2365 3.24609 17.3069 3.28518 17.3773 3.32689C17.4476 3.36339 17.518 3.40511 17.5858 3.44943C18.6154 4.07508 19.525 4.88321 20.2653 5.8269C20.3148 5.88947 20.3644 5.95463 20.4113 6.0172C20.6042 6.27528 20.784 6.54118 20.9508 6.81491C20.9769 6.85922 21.003 6.90093 21.0264 6.94525C21.0655 7.00781 21.102 7.07037 21.1359 7.13555C21.1959 7.23722 21.2506 7.3441 21.3053 7.44838C21.3653 7.56569 21.4226 7.6856 21.4774 7.80552C21.5243 7.90458 21.5686 8.00626 21.6129 8.10792V8.11053C21.6598 8.22263 21.7041 8.33472 21.7484 8.44682C21.7902 8.55631 21.8292 8.66841 21.8683 8.7779C21.9074 8.89521 21.9439 9.01251 21.9804 9.13243C22.0508 9.36444 22.1108 9.59645 22.1629 9.83368C22.1889 9.94838 22.2124 10.0631 22.2333 10.1778C22.2671 10.3629 22.2958 10.548 22.3193 10.7383C22.3323 10.8165 22.3401 10.8973 22.3479 10.9781C22.3584 11.0615 22.3662 11.1449 22.3714 11.231C22.3766 11.3144 22.3818 11.4004 22.387 11.4864C22.3923 11.5646 22.3923 11.6429 22.3975 11.7211Z" fill="#A7B1BC"/>
</svg>
