<svg width="24" height="24" viewBox="0 0 24 24" fill="none" xmlns="http://www.w3.org/2000/svg">
<path d="M19.6059 8.87163C19.6059 6.73352 17.027 5 13.8469 5C10.8154 5 8.33314 6.57221 8.10684 8.57459C8.09505 8.6719 8.09033 8.77176 8.09033 8.86906V11.8496C8.09033 13.9877 10.6693 15.7212 13.8493 15.7212C17.0293 15.7212 19.6083 13.9877 19.6083 11.8496V8.87163H19.6059ZM18.5098 11.8496C18.5098 13.1145 16.5979 14.528 13.8493 14.528C11.1006 14.528 9.18884 13.1145 9.18884 11.8496V11.1429C9.23363 11.1787 9.27843 11.2223 9.32557 11.2607C10.384 12.1646 12.0177 12.7407 13.8517 12.7407C15.6857 12.7407 17.3193 12.162 18.3777 11.2607C18.4225 11.2299 18.4673 11.1864 18.5145 11.1429V11.8496H18.5098ZM18.373 9.46056C18.2363 9.78063 17.9935 10.0879 17.654 10.3645C16.8384 11.0456 15.4924 11.55 13.8469 11.55C12.2015 11.55 10.8555 11.0456 10.0399 10.3645C9.7004 10.0879 9.45758 9.78063 9.32085 9.46056C9.23127 9.26339 9.18414 9.06623 9.18414 8.87163C9.18414 7.60669 11.0959 6.19323 13.8446 6.19323C16.5932 6.19323 18.505 7.60669 18.505 8.87163C18.5097 9.06879 18.4626 9.26339 18.373 9.46056Z" fill="white"/>
<path d="M12.4774 12.1338H11.3812V15.2731H12.4774V12.1338Z" fill="white"/>
<path d="M16.3175 12.0596H15.2213V15.1989H16.3175V12.0596Z" fill="white"/>
<path d="M20.7044 9.66284V10.9047C22.0623 11.4143 22.8991 12.3182 22.8991 13.1529C22.8991 13.3501 22.8543 13.5473 22.7624 13.7419C22.6257 14.062 22.3829 14.3692 22.0434 14.6458C21.2278 15.3269 19.8817 15.8313 18.2363 15.8313C17.7507 15.8313 17.291 15.7878 16.862 15.7033V16.9145C17.3028 16.9887 17.7625 17.0246 18.2363 17.0246C20.068 17.0246 21.704 16.4459 22.7624 15.5445C22.8072 15.5087 22.852 15.4703 22.8991 15.4267V16.1335C22.8991 17.3984 20.9873 18.8119 18.2387 18.8119C17.7531 18.8119 17.2934 18.7683 16.8643 18.6838C16.4683 18.6173 16.1006 18.5123 15.7682 18.3766C14.83 18.0258 14.144 17.4855 13.8116 16.9145H12.6023C13.1398 18.6787 15.4594 20 18.241 20C21.4187 20 24 18.2741 24 16.136V13.1555C23.9953 11.6115 22.6493 10.2774 20.7044 9.66284Z" fill="white"/>
<path d="M16.862 16.9146H15.7659V19.5571H16.862V16.9146Z" fill="white"/>
<path d="M20.7044 16.3408H19.6083V19.4801H20.7044V16.3408Z" fill="white"/>
<path d="M11.5227 16.894H2.68738V18.0028H11.5227V16.894Z" fill="white"/>
<path d="M7.84762 14.4536H1.44275V15.5624H7.84762V14.4536Z" fill="white"/>
<path d="M6.83391 12.0134H0V13.1222H6.83391V12.0134Z" fill="white"/>
</svg>
