<svg width="25" height="24" viewBox="0 0 25 24" fill="none" xmlns="http://www.w3.org/2000/svg">
<path d="M11.1239 16.3667H10.5975V9.08936L9.7616 9.84521L8.5448 10.9458L8.21179 10.644L11.1239 8.01123V16.3667Z" fill="#A7B1BC" stroke="#A7B1BC"/>
<path d="M13.7998 7.63574V14.9141L14.6357 14.1572L15.8506 13.0566L16.1826 13.3574L13.2734 15.9902V7.63574H13.7998Z" fill="#A7B1BC" stroke="#A7B1BC"/>
<path d="M20.2 3.38136V20.6212H18.6764V3.38136H5.72349V20.6212H18.6764V22H4.19995V3.38136C4.19995 3.01545 4.36037 2.66448 4.64601 2.4055C4.93165 2.14652 5.31916 2.00068 5.72349 2H18.6764C19.0807 2.00068 19.4683 2.14652 19.7539 2.4055C20.0395 2.66448 20.2 3.01545 20.2 3.38136Z" fill="#A7B1BC"/>
</svg>
