<svg width="25" height="24" viewBox="0 0 25 24" fill="none" xmlns="http://www.w3.org/2000/svg">
<path d="M4.32532 3.5H13.1583C13.7386 3.5 14.1847 3.95308 14.1847 4.48535V7.09863H21.2745C21.8547 7.09876 22.2999 7.55178 22.2999 8.08398V19.5146C22.2999 20.0469 21.8547 20.4999 21.2745 20.5H4.32532C3.74513 20.4999 3.29993 20.0469 3.29993 19.5146V4.48535C3.29993 3.95312 3.74513 3.50011 4.32532 3.5ZM3.77942 20.0605H21.8185V7.53809H3.77942V20.0605ZM3.77942 7.09863H13.7023V3.93945H3.77942V7.09863Z" fill="#A7B1BC" stroke="#A7B1BC"/>
<path d="M11.9415 12.1401V16.4614H21.6593V16.9009H12.4874C11.9073 16.9008 11.4622 16.4486 11.462 15.9165V12.1401H11.9415Z" fill="#A7B1BC" stroke="#A7B1BC"/>
<path d="M18.3578 14.5201V13.0806H15.3942V14.5201H18.3578Z" fill="#A7B1BC"/>
<path d="M22.2738 10.3687L22.0629 11.6403H12.4163L12.6272 10.3687H22.2738Z" fill="#A7B1BC"/>
</svg>
