<svg width="24" height="24" viewBox="0 0 24 24" fill="none" xmlns="http://www.w3.org/2000/svg">
<path d="M21.9977 5.43379H20.5979V14.5408C20.5979 14.5742 20.5746 14.5981 20.5419 14.5981H17.7401C17.7168 14.3066 17.6725 14.0198 17.6071 13.7426C18.5146 13.6996 19.2355 12.9349 19.2355 11.9958V11.7258C19.2355 10.7603 18.4726 9.97652 17.5278 9.97652H6.46983C5.52733 9.97652 4.76215 10.7603 4.76215 11.7258V11.9958C4.76215 12.9349 5.48301 13.6996 6.38818 13.7426C6.32519 14.0198 6.28088 14.3066 6.25755 14.5981H3.4534C3.42307 14.5981 3.39741 14.5742 3.39741 14.5408V5.43379H20.5979V4.00238C20.5793 4 20.5606 4 20.5419 4H2V14.5408C2 15.3652 2.65088 16.0319 3.4534 16.0319H6.30887C6.74512 18.8493 9.12936 21 11.9988 21C14.8706 21 17.2502 18.8493 17.6888 16.0319H20.5419C21.3468 16.0319 22 15.3652 22 14.5408V5.49114C22 5.47202 22 5.45291 21.9977 5.43379ZM6.96907 12.2132H6.46983C6.35085 12.2132 6.25522 12.1153 6.25522 11.9958V11.7258C6.25522 11.6063 6.35085 11.5083 6.46983 11.5083H7.42401C7.25604 11.7305 7.10438 11.9647 6.96907 12.2132ZM16.2657 16.0319C15.8435 18.0464 14.0914 19.5638 11.9988 19.5638C9.90622 19.5638 8.1542 18.0464 7.73427 16.0319C7.67128 15.7308 7.63628 15.4178 7.63628 15.0952C7.63628 14.9279 7.64561 14.7606 7.66427 14.5981C7.69694 14.3042 7.75526 14.0198 7.84158 13.7426C8.01655 13.1787 8.30117 12.6601 8.66744 12.2132C8.8844 11.9504 9.13169 11.7138 9.40231 11.5083H14.5954C14.866 11.7138 15.1133 11.9504 15.3302 12.2132C15.6988 12.6601 15.9834 13.1787 16.1561 13.7426C16.2424 14.0198 16.303 14.3042 16.3357 14.5981C16.3544 14.7606 16.3614 14.9279 16.3614 15.0952C16.3614 15.4178 16.3287 15.7308 16.2657 16.0319ZM17.0262 12.2132C16.8933 11.9647 16.7416 11.7305 16.5737 11.5083H17.5278C17.6468 11.5083 17.7424 11.6063 17.7424 11.7258V11.9958C17.7424 12.1153 17.6468 12.2132 17.5278 12.2132H17.0262Z" fill="white"/>
<path d="M12.4747 15.6496V13.0425H11.5252V15.6424L11.2383 15.3485C11.0143 15.5779 10.7904 15.8073 10.5687 16.0343L12.0058 17.5064C12.4817 17.0189 12.9576 16.5338 13.4335 16.0463C13.1979 15.8288 12.96 15.6137 12.7243 15.3963L12.4747 15.6496Z" fill="white"/>
</svg>
